<svg xmlns="http://www.w3.org/2000/svg" width="1600" height="1000" viewBox="0 0 1600 1000" font-family="Helvetica, Arial, 'DejaVu Sans', sans-serif">
<defs><marker id="amg" markerWidth="10" markerHeight="10" refX="7.5" refY="5" orient="auto"><path d="M0,0 L10,5 L0,10 Z" fill="#4D5E6E"/></marker><marker id="amr" markerWidth="10" markerHeight="10" refX="7.5" refY="5" orient="auto"><path d="M0,0 L10,5 L0,10 Z" fill="#C0392B"/></marker></defs>
<rect x="0" y="0" width="1600" height="1000" rx="0" fill="#FFFFFF" stroke="none" stroke-width="1.2" />
<rect x="20" y="20" width="1560" height="550" rx="14" fill="#F5F8FA" stroke="#D7E1EA" stroke-width="1.4" stroke-dasharray="7 4"/>
<rect x="60" y="143" width="110" height="34" rx="5" fill="#D6EAF8" stroke="#2E86C1" stroke-width="1.3" />
<text x="111.2" y="164.2" font-size="12.0" font-weight="bold" fill="#1F2933">I</text>
<rect x="60" y="183" width="110" height="34" rx="5" fill="#D5F5E3" stroke="#1E8449" stroke-width="1.3" />
<text x="108.6" y="204.2" font-size="12.0" font-weight="bold" fill="#1F2933">S</text>
<text x="116.2" y="206.1" font-size="8.2" font-weight="bold" fill="#1F2933">t</text>
<rect x="60" y="223" width="110" height="34" rx="5" fill="#E8DAEF" stroke="#7D3C98" stroke-width="1.3" />
<text x="108.6" y="244.2" font-size="12.0" font-weight="bold" fill="#1F2933">T</text>
<text x="116.2" y="246.1" font-size="8.2" font-weight="bold" fill="#1F2933">t</text>
<rect x="60" y="263" width="110" height="34" rx="5" fill="#FDEBD0" stroke="#D68910" stroke-width="1.3" />
<text x="108.6" y="284.2" font-size="12.0" font-weight="bold" fill="#1F2933">K</text>
<text x="116.2" y="286.1" font-size="8.2" font-weight="bold" fill="#1F2933">t</text>
<rect x="60" y="303" width="110" height="34" rx="5" fill="#FADBD8" stroke="#C0392B" stroke-width="1.3" />
<text x="108.6" y="324.2" font-size="12.0" font-weight="bold" fill="#1F2933">e</text>
<text x="116.2" y="326.1" font-size="8.2" font-weight="bold" fill="#1F2933">t</text>
<path d="M 193 143.0 C 183.25 146.88, 183.25 181.412, 183.25 220.6 C 183.25 234.18, 185.85 240, 180 240 C 185.85 240, 183.25 245.82, 183.25 259.4 C 183.25 298.58799999999997, 183.25 333.12, 193 337.0" fill="none" stroke="#4D5E6E" stroke-width="2"/>
<rect x="200" y="140" width="220" height="200" rx="12" fill="#0F4D92" stroke="#0B3A6E" stroke-width="1.6" />
<line x1="284.0" y1="172.0" x2="310" y2="170.0" stroke="#9FC5E8" stroke-width="0.7" />
<line x1="284.0" y1="172.0" x2="310" y2="178.0" stroke="#9FC5E8" stroke-width="0.7" />
<line x1="284.0" y1="172.0" x2="310" y2="186.0" stroke="#9FC5E8" stroke-width="0.7" />
<line x1="284.0" y1="172.0" x2="310" y2="194.0" stroke="#9FC5E8" stroke-width="0.7" />
<line x1="284.0" y1="182.0" x2="310" y2="170.0" stroke="#9FC5E8" stroke-width="0.7" />
<line x1="284.0" y1="182.0" x2="310" y2="178.0" stroke="#9FC5E8" stroke-width="0.7" />
<line x1="284.0" y1="182.0" x2="310" y2="186.0" stroke="#9FC5E8" stroke-width="0.7" />
<line x1="284.0" y1="182.0" x2="310" y2="194.0" stroke="#9FC5E8" stroke-width="0.7" />
<line x1="284.0" y1="192.0" x2="310" y2="170.0" stroke="#9FC5E8" stroke-width="0.7" />
<line x1="284.0" y1="192.0" x2="310" y2="178.0" stroke="#9FC5E8" stroke-width="0.7" />
<line x1="284.0" y1="192.0" x2="310" y2="186.0" stroke="#9FC5E8" stroke-width="0.7" />
<line x1="284.0" y1="192.0" x2="310" y2="194.0" stroke="#9FC5E8" stroke-width="0.7" />
<line x1="310" y1="170.0" x2="336.0" y2="172.0" stroke="#9FC5E8" stroke-width="0.7" />
<line x1="310" y1="170.0" x2="336.0" y2="182.0" stroke="#9FC5E8" stroke-width="0.7" />
<line x1="310" y1="170.0" x2="336.0" y2="192.0" stroke="#9FC5E8" stroke-width="0.7" />
<line x1="310" y1="178.0" x2="336.0" y2="172.0" stroke="#9FC5E8" stroke-width="0.7" />
<line x1="310" y1="178.0" x2="336.0" y2="182.0" stroke="#9FC5E8" stroke-width="0.7" />
<line x1="310" y1="178.0" x2="336.0" y2="192.0" stroke="#9FC5E8" stroke-width="0.7" />
<line x1="310" y1="186.0" x2="336.0" y2="172.0" stroke="#9FC5E8" stroke-width="0.7" />
<line x1="310" y1="186.0" x2="336.0" y2="182.0" stroke="#9FC5E8" stroke-width="0.7" />
<line x1="310" y1="186.0" x2="336.0" y2="192.0" stroke="#9FC5E8" stroke-width="0.7" />
<line x1="310" y1="194.0" x2="336.0" y2="172.0" stroke="#9FC5E8" stroke-width="0.7" />
<line x1="310" y1="194.0" x2="336.0" y2="182.0" stroke="#9FC5E8" stroke-width="0.7" />
<line x1="310" y1="194.0" x2="336.0" y2="192.0" stroke="#9FC5E8" stroke-width="0.7" />
<circle cx="284.0" cy="172.0" r="3" fill="#0F4D92" stroke="#FFFFFF" stroke-width="1"/>
<circle cx="284.0" cy="182.0" r="3" fill="#0F4D92" stroke="#FFFFFF" stroke-width="1"/>
<circle cx="284.0" cy="192.0" r="3" fill="#0F4D92" stroke="#FFFFFF" stroke-width="1"/>
<circle cx="310" cy="170.0" r="3" fill="#0F4D92" stroke="#FFFFFF" stroke-width="1"/>
<circle cx="310" cy="178.0" r="3" fill="#0F4D92" stroke="#FFFFFF" stroke-width="1"/>
<circle cx="310" cy="186.0" r="3" fill="#0F4D92" stroke="#FFFFFF" stroke-width="1"/>
<circle cx="310" cy="194.0" r="3" fill="#0F4D92" stroke="#FFFFFF" stroke-width="1"/>
<circle cx="336.0" cy="172.0" r="3" fill="#0F4D92" stroke="#FFFFFF" stroke-width="1"/>
<circle cx="336.0" cy="182.0" r="3" fill="#0F4D92" stroke="#FFFFFF" stroke-width="1"/>
<circle cx="336.0" cy="192.0" r="3" fill="#0F4D92" stroke="#FFFFFF" stroke-width="1"/>
<text x="310" y="245" font-size="16" text-anchor="middle" font-weight="bold" fill="#FFFFFF" >Coordinator LLM</text>
<text x="310" y="267" font-size="10" text-anchor="middle" font-weight="normal" fill="#D6E4F5" >(RouterAgent · agentic loop)</text>
<text x="310" y="322" font-size="9.5" text-anchor="middle" font-weight="normal" fill="#9FC5E8" font-style="italic">dispatch · cancel · re-plan</text>
<rect x="520" y="193" width="110" height="34" rx="5" fill="#F5B7B1" stroke="#922B21" stroke-width="1.3" />
<text x="563.5" y="214.2" font-size="12.0" font-weight="bold" fill="#1F2933">s</text>
<text x="571.1" y="216.1" font-size="8.2" font-weight="bold" fill="#1F2933">i,t</text>
<rect x="520" y="233" width="110" height="34" rx="5" fill="#D1F2EB" stroke="#148F77" stroke-width="1.3" />
<text x="563.5" y="254.2" font-size="12.0" font-weight="bold" fill="#1F2933">o</text>
<text x="571.1" y="256.1" font-size="8.2" font-weight="bold" fill="#1F2933">i,t</text>
<rect x="520" y="273" width="110" height="34" rx="5" fill="#FCF3CF" stroke="#B7950B" stroke-width="1.3" />
<text x="563.5" y="294.2" font-size="12.0" font-weight="bold" fill="#1F2933">q</text>
<text x="571.1" y="296.1" font-size="8.2" font-weight="bold" fill="#1F2933">i,t</text>
<path d="M 653 193.0 C 643.25 195.28, 643.25 215.572, 643.25 238.6 C 643.25 246.58, 645.85 250, 640 250 C 645.85 250, 643.25 253.42, 643.25 261.4 C 643.25 284.428, 643.25 304.72, 653 307.0" fill="none" stroke="#4D5E6E" stroke-width="2"/>
<rect x="672" y="182" width="170" height="160" rx="12" fill="#6C3483" stroke="#AF7AC5" stroke-width="1.3" />
<rect x="666" y="176" width="170" height="160" rx="12" fill="#76448A" stroke="#AF7AC5" stroke-width="1.3" />
<rect x="660" y="170" width="170" height="160" rx="12" fill="#7D3C98" stroke="#5B2C6F" stroke-width="1.6" />
<rect x="786" y="182" width="34" height="20" rx="6" fill="#FFFFFF" stroke="#5B2C6F" stroke-width="1.2" />
<text x="803" y="196.5" font-size="11" text-anchor="middle" font-weight="bold" fill="#7D3C98" >×N</text>
<text x="745" y="240" font-size="15" text-anchor="middle" font-weight="bold" fill="#FFFFFF" >Worker Agent LM</text>
<text x="745" y="261" font-size="10" text-anchor="middle" font-weight="normal" fill="#E8DAEF" >(ReAct tool loop)</text>
<text x="745" y="312" font-size="9.5" text-anchor="middle" font-weight="normal" fill="#D2B4DE" font-style="italic">navigate · supply · rescue · report</text>
<rect x="910" y="150" width="230" height="200" rx="12" fill="#E5E8E8" stroke="#566573" stroke-width="1.6" />
<text x="1025" y="184" font-size="15" text-anchor="middle" font-weight="bold" fill="#1F2933" >SAR Environment</text>
<rect x="975" y="200" width="15" height="15" rx="0" fill="#FFFFFF" stroke="#C5CBCE" stroke-width="0.8" />
<rect x="990" y="200" width="15" height="15" rx="0" fill="#FFFFFF" stroke="#C5CBCE" stroke-width="0.8" />
<rect x="1005" y="200" width="15" height="15" rx="0" fill="#FFFFFF" stroke="#C5CBCE" stroke-width="0.8" />
<rect x="1020" y="200" width="15" height="15" rx="0" fill="#FFFFFF" stroke="#C5CBCE" stroke-width="0.8" />
<rect x="1035" y="200" width="15" height="15" rx="0" fill="#FFFFFF" stroke="#C5CBCE" stroke-width="0.8" />
<rect x="1050" y="200" width="15" height="15" rx="0" fill="#212121" stroke="#C5CBCE" stroke-width="0.8" />
<rect x="975" y="215" width="15" height="15" rx="0" fill="#FFFFFF" stroke="#C5CBCE" stroke-width="0.8" />
<rect x="990" y="215" width="15" height="15" rx="0" fill="#F5B041" stroke="#C5CBCE" stroke-width="0.8" />
<rect x="1005" y="215" width="15" height="15" rx="0" fill="#E74C3C" stroke="#C5CBCE" stroke-width="0.8" />
<rect x="1020" y="215" width="15" height="15" rx="0" fill="#FFFFFF" stroke="#C5CBCE" stroke-width="0.8" />
<rect x="1035" y="215" width="15" height="15" rx="0" fill="#FFFFFF" stroke="#C5CBCE" stroke-width="0.8" />
<rect x="1050" y="215" width="15" height="15" rx="0" fill="#FFFFFF" stroke="#C5CBCE" stroke-width="0.8" />
<rect x="975" y="230" width="15" height="15" rx="0" fill="#FFFFFF" stroke="#C5CBCE" stroke-width="0.8" />
<rect x="990" y="230" width="15" height="15" rx="0" fill="#FFFFFF" stroke="#C5CBCE" stroke-width="0.8" />
<rect x="1005" y="230" width="15" height="15" rx="0" fill="#FFFFFF" stroke="#C5CBCE" stroke-width="0.8" />
<rect x="1020" y="230" width="15" height="15" rx="0" fill="#FFFFFF" stroke="#C5CBCE" stroke-width="0.8" />
<rect x="1035" y="230" width="15" height="15" rx="0" fill="#FFFFFF" stroke="#C5CBCE" stroke-width="0.8" />
<rect x="1050" y="230" width="15" height="15" rx="0" fill="#FFFFFF" stroke="#C5CBCE" stroke-width="0.8" />
<rect x="975" y="245" width="15" height="15" rx="0" fill="#2E86C1" stroke="#C5CBCE" stroke-width="0.8" />
<rect x="990" y="245" width="15" height="15" rx="0" fill="#FFFFFF" stroke="#C5CBCE" stroke-width="0.8" />
<rect x="1005" y="245" width="15" height="15" rx="0" fill="#FFFFFF" stroke="#C5CBCE" stroke-width="0.8" />
<rect x="1020" y="245" width="15" height="15" rx="0" fill="#FFFFFF" stroke="#C5CBCE" stroke-width="0.8" />
<rect x="1035" y="245" width="15" height="15" rx="0" fill="#FFFFFF" stroke="#C5CBCE" stroke-width="0.8" />
<rect x="1050" y="245" width="15" height="15" rx="0" fill="#FFFFFF" stroke="#C5CBCE" stroke-width="0.8" />
<circle cx="1027.5" cy="237.5" r="4.5" fill="#F06292" stroke="#FFFFFF" stroke-width="1"/>
<rect x="1038.3" y="203.3" width="8.4" height="8.4" transform="rotate(45 1042.5 207.5)" fill="#8E44AD" stroke="#FFFFFF" stroke-width="1"/>
<text x="1025" y="300" font-size="10" text-anchor="middle" font-weight="normal" fill="#4D5E6E" >GridEngine · SARBarrier</text>
<text x="1025" y="318" font-size="9" text-anchor="middle" font-weight="normal" fill="#4D5E6E" font-style="italic">turn-based sync · fire spread</text>
<rect x="1210" y="150" width="190" height="180" rx="12" fill="#148F77" stroke="#0E6655" stroke-width="1.6" />
<path d="M 1273.0 180 A 32.0 10 0 0 1 1337.0 180 L 1337.0 212 A 32.0 10 0 0 1 1273.0 212 Z" fill="#148F77" stroke="#FFFFFF" stroke-width="1.4"/>
<ellipse cx="1305" cy="180" rx="32.0" ry="10" fill="#148F77" stroke="#FFFFFF" stroke-width="1.4"/>
<text x="1305" y="250" font-size="15" text-anchor="middle" font-weight="bold" fill="#FFFFFF" >Semantic</text>
<text x="1305" y="270" font-size="15" text-anchor="middle" font-weight="bold" fill="#FFFFFF" >Map Store</text>
<text x="1305" y="306" font-size="9.5" text-anchor="middle" font-weight="normal" fill="#D1F2EB" font-style="italic">ingest · diff · summarize</text>
<rect x="1450" y="90" width="120" height="90" rx="10" fill="#C2185B" stroke="#8A1245" stroke-width="1.6" />
<text x="1510" y="122" font-size="13" text-anchor="middle" font-weight="bold" fill="#FFFFFF" >Task</text>
<text x="1510" y="140" font-size="13" text-anchor="middle" font-weight="bold" fill="#FFFFFF" >Watchdog</text>
<text x="1510" y="164" font-size="9" text-anchor="middle" font-weight="normal" fill="#F5B7D4" font-style="italic">rule-based</text>
<polyline points="420,210 518,210" fill="none" stroke="#4D5E6E" stroke-width="1.8"  marker-end="url(#amg)"/>
<text x="432.9" y="196.0" font-size="10.0" font-weight="normal" fill="#4D5E6E">dispatch </text>
<text x="486.9" y="196.0" font-size="10.0" font-weight="normal" fill="#4D5E6E">s</text>
<text x="492.9" y="197.6" font-size="6.8" font-weight="normal" fill="#4D5E6E">i,t</text>
<text x="469" y="226" font-size="9" text-anchor="middle" font-weight="normal" fill="#4D5E6E" >(A2A)</text>
<polyline points="830,250 908,250" fill="none" stroke="#4D5E6E" stroke-width="1.8"  marker-end="url(#amg)"/>
<text x="858.9" y="238.0" font-size="10.5" font-weight="bold" fill="#4D5E6E">a</text>
<text x="865.6" y="239.7" font-size="7.1" font-weight="bold" fill="#4D5E6E">i,t</text>
<polyline points="1025,350 1025,400 745,400 745,344" fill="none" stroke="#4D5E6E" stroke-width="1.8"  marker-end="url(#amg)"/>
<text x="845.8" y="392.0" font-size="10.0" font-weight="normal" fill="#4D5E6E">o</text>
<text x="851.8" y="393.6" font-size="6.8" font-weight="normal" fill="#4D5E6E">i,t+1</text>
<text x="872.2" y="392.0" font-size="10.0" font-weight="normal" fill="#4D5E6E">  (step N+1)</text>
<polyline points="745,170 745,100 1300,100 1300,148" fill="none" stroke="#4D5E6E" stroke-width="1.8"  marker-end="url(#amg)"/>
<text x="954.9" y="92.0" font-size="10.0" font-weight="normal" fill="#4D5E6E">report </text>
<text x="996.9" y="92.0" font-size="10.0" font-weight="normal" fill="#4D5E6E">r</text>
<text x="1002.9" y="93.6" font-size="6.8" font-weight="normal" fill="#4D5E6E">i,t</text>
<text x="1015.1" y="92.0" font-size="10.0" font-weight="normal" fill="#4D5E6E">  ([DATA] push)</text>
<polyline points="1300,330 1300,440 310,440 310,342" fill="none" stroke="#4D5E6E" stroke-width="1.8"  marker-end="url(#amg)"/>
<text x="707.6" y="432.0" font-size="10.0" font-weight="normal" fill="#4D5E6E">inject </text>
<text x="749.6" y="432.0" font-size="10.0" font-weight="normal" fill="#4D5E6E">S</text>
<text x="755.6" y="433.6" font-size="6.8" font-weight="normal" fill="#4D5E6E">t+1</text>
<text x="767.9" y="432.0" font-size="10.0" font-weight="normal" fill="#4D5E6E">, </text>
<text x="779.9" y="432.0" font-size="10.0" font-weight="normal" fill="#4D5E6E">T</text>
<text x="785.9" y="433.6" font-size="6.8" font-weight="normal" fill="#4D5E6E">t+1</text>
<text x="798.1" y="432.0" font-size="10.0" font-weight="normal" fill="#4D5E6E">, </text>
<text x="810.1" y="432.0" font-size="10.0" font-weight="normal" fill="#4D5E6E">K</text>
<text x="816.1" y="433.6" font-size="6.8" font-weight="normal" fill="#4D5E6E">t+1</text>
<text x="828.4" y="432.0" font-size="10.0" font-weight="normal" fill="#4D5E6E">  into context</text>
<polyline points="1510,90 1510,50 310,50 310,138" fill="none" stroke="#C0392B" stroke-width="1.8" stroke-dasharray="5 4" marker-end="url(#amr)"/>
<text x="829.0" y="42.0" font-size="10.0" font-weight="normal" fill="#C0392B">alerts </text>
<text x="871.0" y="42.0" font-size="10.0" font-weight="normal" fill="#C0392B">e</text>
<text x="877.0" y="43.6" font-size="6.8" font-weight="normal" fill="#C0392B">t</text>
<text x="881.0" y="42.0" font-size="10.0" font-weight="normal" fill="#C0392B">  (stale · deadline)</text>
<rect x="20" y="610" width="375" height="180" rx="10" fill="#D6EAF8" stroke="#2E86C1" stroke-width="1.4" />
<text x="36.0" y="640.0" font-size="13.0" font-weight="bold" fill="#1F2933">Mission I</text>
<text x="36" y="670" font-size="10" text-anchor="start" font-weight="normal" fill="#1F2933" >Extinguish all fires and rescue</text>
<text x="36" y="686" font-size="10" text-anchor="start" font-weight="normal" fill="#1F2933" >every person in Scene 1 within</text>
<text x="36" y="702" font-size="10" text-anchor="start" font-weight="normal" fill="#1F2933" >the 50-step budget.</text>
<text x="36" y="718" font-size="10" text-anchor="start" font-weight="normal" fill="#1F2933" ></text>
<text x="36" y="734" font-size="10" text-anchor="start" font-weight="normal" fill="#1F2933" >Agents: 3 rescue robots, seed 42.</text>
<rect x="415" y="610" width="375" height="180" rx="10" fill="#D5F5E3" stroke="#1E8449" stroke-width="1.4" />
<text x="431.0" y="640.0" font-size="13.0" font-weight="bold" fill="#1F2933">Semantic Map </text>
<text x="537.5" y="640.0" font-size="13.0" font-weight="bold" fill="#1F2933">S</text>
<text x="545.7" y="642.1" font-size="8.8" font-weight="bold" fill="#1F2933">t</text>
<rect x="431" y="658" width="16" height="16" rx="0" fill="#FFFFFF" stroke="#C5CBCE" stroke-width="0.8" />
<rect x="447" y="658" width="16" height="16" rx="0" fill="#FFFFFF" stroke="#C5CBCE" stroke-width="0.8" />
<rect x="463" y="658" width="16" height="16" rx="0" fill="#FFFFFF" stroke="#C5CBCE" stroke-width="0.8" />
<rect x="479" y="658" width="16" height="16" rx="0" fill="#FFFFFF" stroke="#C5CBCE" stroke-width="0.8" />
<rect x="495" y="658" width="16" height="16" rx="0" fill="#FFFFFF" stroke="#C5CBCE" stroke-width="0.8" />
<rect x="431" y="674" width="16" height="16" rx="0" fill="#FFFFFF" stroke="#C5CBCE" stroke-width="0.8" />
<rect x="447" y="674" width="16" height="16" rx="0" fill="#E74C3C" stroke="#C5CBCE" stroke-width="0.8" />
<rect x="463" y="674" width="16" height="16" rx="0" fill="#FFFFFF" stroke="#C5CBCE" stroke-width="0.8" />
<rect x="479" y="674" width="16" height="16" rx="0" fill="#FFFFFF" stroke="#C5CBCE" stroke-width="0.8" />
<rect x="495" y="674" width="16" height="16" rx="0" fill="#FFFFFF" stroke="#C5CBCE" stroke-width="0.8" />
<rect x="431" y="690" width="16" height="16" rx="0" fill="#FFFFFF" stroke="#C5CBCE" stroke-width="0.8" />
<rect x="447" y="690" width="16" height="16" rx="0" fill="#FFFFFF" stroke="#C5CBCE" stroke-width="0.8" />
<rect x="463" y="690" width="16" height="16" rx="0" fill="#FFFFFF" stroke="#C5CBCE" stroke-width="0.8" />
<rect x="479" y="690" width="16" height="16" rx="0" fill="#FFFFFF" stroke="#C5CBCE" stroke-width="0.8" />
<rect x="495" y="690" width="16" height="16" rx="0" fill="#FFFFFF" stroke="#C5CBCE" stroke-width="0.8" />
<rect x="431" y="706" width="16" height="16" rx="0" fill="#2E86C1" stroke="#C5CBCE" stroke-width="0.8" />
<rect x="447" y="706" width="16" height="16" rx="0" fill="#FFFFFF" stroke="#C5CBCE" stroke-width="0.8" />
<rect x="463" y="706" width="16" height="16" rx="0" fill="#FFFFFF" stroke="#C5CBCE" stroke-width="0.8" />
<rect x="479" y="706" width="16" height="16" rx="0" fill="#FFFFFF" stroke="#C5CBCE" stroke-width="0.8" />
<rect x="495" y="706" width="16" height="16" rx="0" fill="#FFFFFF" stroke="#C5CBCE" stroke-width="0.8" />
<circle cx="487.0" cy="698.0" r="4.8" fill="#F06292" stroke="#FFFFFF" stroke-width="1"/>
<rect x="498.52" y="661.52" width="8.96" height="8.96" transform="rotate(45 503.0 666.0)" fill="#8E44AD" stroke="#FFFFFF" stroke-width="1"/>
<text x="531" y="670" font-size="10" text-anchor="start" font-weight="normal" fill="#1F2933" >fire (high)  (13, 7)</text>
<text x="531" y="686" font-size="10" text-anchor="start" font-weight="normal" fill="#1F2933" >person  (8, 2)</text>
<text x="531" y="702" font-size="10" text-anchor="start" font-weight="normal" fill="#1F2933" >reservoir  (0, 9)</text>
<text x="531" y="718" font-size="10" text-anchor="start" font-weight="normal" fill="#1F2933" >deposit  (19, 0)</text>
<rect x="810" y="610" width="375" height="180" rx="10" fill="#E8DAEF" stroke="#7D3C98" stroke-width="1.4" />
<text x="826.0" y="640.0" font-size="13.0" font-weight="bold" fill="#1F2933">Team Status </text>
<text x="924.3" y="640.0" font-size="13.0" font-weight="bold" fill="#1F2933">T</text>
<text x="932.5" y="642.1" font-size="8.8" font-weight="bold" fill="#1F2933">t</text>
<text x="826" y="670" font-size="10" text-anchor="start" font-weight="normal" fill="#1F2933" >A1  (12, 7)   supply×2   RUNNING</text>
<text x="826" y="686" font-size="10" text-anchor="start" font-weight="normal" fill="#1F2933" >A2  (5, 3)    carrying person</text>
<text x="826" y="702" font-size="10" text-anchor="start" font-weight="normal" fill="#1F2933" >A3  (20, 15)  —   IDLE</text>
<text x="826" y="718" font-size="10" text-anchor="start" font-weight="normal" fill="#1F2933" ></text>
<text x="826" y="734" font-size="10" text-anchor="start" font-weight="normal" fill="#1F2933" >coverage 38% · transport 1/4</text>
<rect x="1205" y="610" width="375" height="180" rx="10" fill="#FDEBD0" stroke="#D68910" stroke-width="1.4" />
<text x="1221.0" y="640.0" font-size="13.0" font-weight="bold" fill="#1F2933">Subtask States </text>
<text x="1343.8" y="640.0" font-size="13.0" font-weight="bold" fill="#1F2933">K</text>
<text x="1352.0" y="642.1" font-size="8.8" font-weight="bold" fill="#1F2933">t</text>
<text x="1221" y="670" font-size="10" text-anchor="start" font-weight="normal" fill="#1F2933" >S1 suppress-fire → A1  RUNNING</text>
<text x="1221" y="686" font-size="10" text-anchor="start" font-weight="normal" fill="#1F2933" >S2 rescue-person → A2  RUNNING</text>
<text x="1221" y="702" font-size="10" text-anchor="start" font-weight="normal" fill="#1F2933" >S3 transport → A1/A2  PENDING</text>
<text x="1221" y="718" font-size="10" text-anchor="start" font-weight="normal" fill="#1F2933" >S4 explore → A3  COMPLETED</text>
<rect x="20" y="810" width="375" height="160" rx="10" fill="#D1F2EB" stroke="#148F77" stroke-width="1.4" />
<text x="36.0" y="840.0" font-size="13.0" font-weight="bold" fill="#1F2933">Observation </text>
<text x="134.3" y="840.0" font-size="13.0" font-weight="bold" fill="#1F2933">o</text>
<text x="142.5" y="842.1" font-size="8.8" font-weight="bold" fill="#1F2933">i,t</text>
<text x="36" y="870" font-size="10" text-anchor="start" font-weight="normal" fill="#1F2933" >“Fire (high) at (13, 7); person at</text>
<text x="36" y="886" font-size="10" text-anchor="start" font-weight="normal" fill="#1F2933" >(8, 2); reservoir at (0, 9).”</text>
<text x="36" y="902" font-size="10" text-anchor="start" font-weight="normal" fill="#1F2933" ></text>
<text x="36" y="918" font-size="10" text-anchor="start" font-weight="normal" fill="#1F2933" >→ pushed as report r_i,t ([DATA])</text>
<rect x="415" y="810" width="375" height="160" rx="10" fill="#FCF3CF" stroke="#B7950B" stroke-width="1.4" />
<text x="431.0" y="840.0" font-size="13.0" font-weight="bold" fill="#1F2933">Action </text>
<text x="488.3" y="840.0" font-size="13.0" font-weight="bold" fill="#1F2933">a</text>
<text x="496.5" y="842.1" font-size="8.8" font-weight="bold" fill="#1F2933">i,t</text>
<text x="431" y="870" font-size="10" text-anchor="start" font-weight="normal" fill="#1F2933" >[NavigateTo(13, 7),</text>
<text x="431" y="886" font-size="10" text-anchor="start" font-weight="normal" fill="#1F2933" > UseSupply,</text>
<text x="431" y="902" font-size="10" text-anchor="start" font-weight="normal" fill="#1F2933" > ReportObservation]</text>
<rect x="810" y="810" width="375" height="160" rx="10" fill="#E9F7EF" stroke="#52BE80" stroke-width="1.4" />
<text x="826.0" y="840.0" font-size="13.0" font-weight="bold" fill="#1F2933">Primitive Feedback </text>
<text x="981.6" y="840.0" font-size="13.0" font-weight="bold" fill="#1F2933">d</text>
<text x="989.8" y="842.1" font-size="8.8" font-weight="bold" fill="#1F2933">t</text>
<text x="826" y="870" font-size="10" text-anchor="start" font-weight="normal" fill="#1F2933" >UseSupply failed: no supply</text>
<text x="826" y="886" font-size="10" text-anchor="start" font-weight="normal" fill="#1F2933" >in inventory;</text>
<text x="826" y="902" font-size="10" text-anchor="start" font-weight="normal" fill="#1F2933" >barrier timeout → auto-NoOp</text>
<text x="826" y="918" font-size="10" text-anchor="start" font-weight="normal" fill="#1F2933" >(A2, step 17)</text>
<rect x="1205" y="810" width="375" height="160" rx="10" fill="#FADBD8" stroke="#C0392B" stroke-width="1.4" />
<text x="1221.0" y="840.0" font-size="13.0" font-weight="bold" fill="#1F2933">Alert </text>
<text x="1270.1" y="840.0" font-size="13.0" font-weight="bold" fill="#1F2933">e</text>
<text x="1278.3" y="842.1" font-size="8.8" font-weight="bold" fill="#1F2933">t</text>
<text x="1221" y="870" font-size="10" text-anchor="start" font-weight="normal" fill="#1F2933" >TASK_STALE: S1 no progress</text>
<text x="1221" y="886" font-size="10" text-anchor="start" font-weight="normal" fill="#1F2933" >for 6 steps;</text>
<text x="1221" y="902" font-size="10" text-anchor="start" font-weight="normal" fill="#1F2933" >deadline warning: 10 steps</text>
<text x="1221" y="918" font-size="10" text-anchor="start" font-weight="normal" fill="#1F2933" >left</text>
</svg>